<?xml version="1.0" standalone="no"?>
<!DOCTYPE svg PUBLIC "-//W3C//DTD SVG 20010904//EN"
 "http://www.w3.org/TR/2001/REC-SVG-20010904/DTD/svg10.dtd">
<svg version="1.0" xmlns="http://www.w3.org/2000/svg"
 width="225.000000pt" height="225.000000pt" viewBox="0 0 225.000000 225.000000"
 preserveAspectRatio="xMidYMid meet">
<metadata>
Created by potrace 1.16, written by Peter Selinger 2001-2019
</metadata>
<g transform="translate(0.000000,225.000000) scale(0.100000,-0.100000)"
fill="#000000" stroke="none">
<path d="M1000 2235 c-7 -8 -20 -15 -30 -15 -26 0 -90 -29 -90 -40 0 -6 -5
-10 -11 -10 -6 0 -18 -9 -27 -19 -21 -25 -107 -72 -116 -64 -3 4 -6 -1 -6 -9
0 -18 -20 -28 -56 -28 -17 0 -24 -6 -24 -19 0 -11 6 -22 13 -25 6 -3 0 -4 -15
-1 -21 4 -28 1 -28 -10 0 -8 -5 -15 -11 -15 -6 0 -8 -9 -4 -20 3 -11 2 -20 -3
-20 -5 0 -13 17 -18 38 -4 21 -9 30 -11 20 -2 -9 -25 -24 -51 -33 -26 -9 -54
-21 -62 -26 -36 -23 -87 -42 -115 -44 -35 -2 -116 -25 -129 -37 -6 -4 -36 -8
-68 -8 -32 0 -58 -4 -58 -10 0 -5 -18 -15 -40 -21 l-40 -12 0 -904 0 -903
1125 0 1125 0 0 1125 0 1125 -619 0 c-538 0 -620 -2 -631 -15z m309 -455 c349
-94 636 -172 638 -174 2 -2 -52 -212 -121 -467 -68 -255 -146 -545 -172 -644
-26 -99 -50 -183 -53 -187 -3 -4 -69 10 -146 32 -308 84 -1082 290 -1113 296
-19 4 -36 12 -38 19 -3 6 38 173 91 371 53 197 130 488 172 647 63 236 79 286
92 283 9 -3 301 -82 650 -176z"/>
<path d="M980 1318 c-7 -23 -29 -106 -50 -183 l-37 -140 180 -47 c99 -27 181
-47 183 -46 10 11 94 352 87 358 -4 5 -78 27 -165 49 -86 22 -163 44 -171 47
-12 4 -19 -5 -27 -38z"/>
</g>
</svg>
